<?xml version="1.0" encoding="UTF-8" standalone="no"?> <svg width="720" height="720" viewBox="0 0 64 64" fill="none" xmlns="http://www.w3.org/2000/svg">
<path d="M55 13H9C6.79086 13 5 14.7909 5 17V45C5 47.2091 6.79086 49 9 49H55C57.2091 49 59 47.2091 59 45V17C59 14.7909 57.2091 13 55 13Z" fill="#E9F1F2"/>
<path d="M52.05 41C52.6206 39.8612 52.942 38.6139 52.993 37.3412C53.0439 36.0685 52.8231 34.7995 52.3453 33.6188C51.8675 32.438 51.1437 31.3726 50.222 30.4934C49.3004 29.6143 48.202 28.9415 47 28.52V14L43.2 13H9C7.93913 13 6.92172 13.4214 6.17157 14.1716C5.42143 14.9217 5 15.9391 5 17V45C5 46.0609 5.42143 47.0783 6.17157 47.8284C6.92172 48.5786 7.93913 49 9 49H55C56.0609 49 57.0783 48.5786 57.8284 47.8284C58.5786 47.0783 59 46.0609 59 45V41H52.05ZM32 41C29.6074 41.0029 27.2448 40.4668 25.0878 39.4315C22.9307 38.3963 21.0345 36.8885 19.54 35.02L23.75 34.23C24.1358 34.1608 24.5326 34.1856 24.9069 34.3022C25.2811 34.4189 25.6218 34.6239 25.9 34.9L26.29 35.29C26.5143 35.5151 26.7808 35.6937 27.0742 35.8155C27.3677 35.9374 27.6823 36.0001 28 36.0001C28.3177 36.0001 28.6323 35.9374 28.9258 35.8155C29.2192 35.6937 29.4857 35.5151 29.71 35.29L30.1 34.9C30.3782 34.6239 30.7189 34.4189 31.0931 34.3022C31.4674 34.1856 31.8642 34.1608 32.25 34.23L35.28 34.8C34.7443 36.8796 34.9824 39.0829 35.95 41H32Z" fill="#D0D8DA"/>
<path d="M9 11V34L23.748 31.235C24.1337 31.1626 24.5313 31.1852 24.9063 31.3011C25.2813 31.417 25.6224 31.6226 25.9 31.9L26.293 32.293C26.5172 32.5172 26.7833 32.695 27.0762 32.8163C27.3691 32.9376 27.683 33 28 33V33C28.317 33 28.6309 32.9376 28.9238 32.8163C29.2167 32.695 29.4828 32.5172 29.707 32.293L30.1 31.9C30.3776 31.6226 30.7187 31.417 31.0937 31.3011C31.4687 31.1852 31.8663 31.1626 32.252 31.235L47 34V11L28 6L9 11Z" fill="#F9E109"/>
<path d="M12 10.211V31L29 28V7L14.429 9.571L12 10.211Z" fill="#FCBC04"/>
<path d="M43 31L28 28V5L43 8V31Z" fill="#FCBC04"/>
<path d="M43 29L28 26V3L43 6V29Z" fill="#84D2F4"/>
<path d="M13 29L28 26V3L13 6V29Z" fill="#84D2F4"/>
<path d="M43 26V29L28 26V3L32 3.8V18.88C32.0007 20.266 32.4811 21.609 33.3598 22.6809C34.2384 23.7528 35.4611 24.4874 36.82 24.76L43 26Z" fill="#57B7EB"/>
<path d="M28 23V26L13 29V6.00001L17 5.20001V17.88C16.999 18.7682 17.1954 19.6456 17.5751 20.4485C17.9549 21.2515 18.5083 21.96 19.1955 22.5228C19.8827 23.0856 20.6864 23.4885 21.5485 23.7025C22.4106 23.9165 23.3094 23.9361 24.18 23.76L28 23Z" fill="#57B7EB"/>
<path d="M46 44C50.9706 44 55 39.9706 55 35C55 30.0294 50.9706 26 46 26C41.0294 26 37 30.0294 37 35C37 39.9706 41.0294 44 46 44Z" fill="#F8664F"/>
<path d="M54.35 38.35C53.7966 39.7325 52.9088 40.9561 51.7662 41.9111C50.6236 42.8661 49.2618 43.5227 47.8031 43.8219C46.3443 44.1212 44.834 44.0538 43.4077 43.6257C41.9814 43.1977 40.6835 42.4225 39.6305 41.3695C38.5775 40.3165 37.8023 39.0187 37.3743 37.5923C36.9463 36.166 36.8788 34.6558 37.1781 33.197C37.4773 31.7382 38.1339 30.3765 39.0889 29.2338C40.0439 28.0912 41.2675 27.2034 42.65 26.65C42.2189 27.7142 41.9982 28.8518 42 30C42 32.387 42.9482 34.6762 44.636 36.364C46.3239 38.0518 48.6131 39 51 39C52.1482 39.0018 53.2858 38.7811 54.35 38.35V38.35Z" fill="#CC5144"/>
<path d="M43 39V31L51 35L43 39Z" fill="#84D2F4"/>
<path d="M46.02 37.49L43 39V34.11C43.6967 35.4793 44.7374 36.6441 46.02 37.49V37.49Z" fill="#57B7EB"/>
<path d="M55 61H9C9 59.9391 9.42143 58.9217 10.1716 58.1716C10.9217 57.4214 11.9391 57 13 57H51C52.0609 57 53.0783 57.4214 53.8284 58.1716C54.5786 58.9217 55 59.9391 55 61Z" fill="#D0D8DA"/>
<path d="M41 49H23C23.0002 50.2484 22.7194 51.4808 22.1787 52.606C21.6379 53.7312 20.8509 54.7202 19.876 55.5L18 57H46L44.123 55.5C43.1484 54.7201 42.3617 53.7309 41.8211 52.6057C41.2805 51.4806 40.9999 50.2483 41 49V49Z" fill="#93999A"/>
<path d="M55 61H9C8.99935 60.4745 9.10236 59.9541 9.30314 59.4685C9.50393 58.9829 9.79854 58.5417 10.1701 58.1701C10.5417 57.7985 10.9829 57.5039 11.4685 57.3031C11.9541 57.1024 12.4745 56.9993 13 57H14C14.0016 57.5299 14.2128 58.0377 14.5875 58.4125C14.9623 58.7872 15.4701 58.9984 16 59H54.46C54.813 59.6075 54.9993 60.2974 55 61V61Z" fill="#93999A"/>
<path d="M41 49H23C23.0002 50.2484 22.7194 51.4808 22.1787 52.606C21.6379 53.7312 20.8509 54.7202 19.876 55.5L18 57L41 49Z" fill="#656B76"/>
<path d="M59 28C58.7348 28 58.4804 28.1054 58.2929 28.2929C58.1054 28.4804 58 28.7348 58 29V45C58 45.7956 57.6839 46.5587 57.1213 47.1213C56.5587 47.6839 55.7956 48 55 48H9C8.20435 48 7.44129 47.6839 6.87868 47.1213C6.31607 46.5587 6 45.7956 6 45V41C6 40.7348 5.89464 40.4804 5.70711 40.2929C5.51957 40.1054 5.26522 40 5 40C4.73478 40 4.48043 40.1054 4.29289 40.2929C4.10536 40.4804 4 40.7348 4 41V45C4.00159 46.3256 4.52888 47.5964 5.46622 48.5338C6.40356 49.4711 7.6744 49.9984 9 50H21.925C21.675 51.8583 20.7175 53.5484 19.252 54.718L17.649 56H13C11.6744 56.0016 10.4036 56.5289 9.46622 57.4662C8.52888 58.4036 8.00159 59.6744 8 61C8 61.2652 8.10536 61.5196 8.29289 61.7071C8.48043 61.8946 8.73478 62 9 62H55C55.2652 62 55.5196 61.8946 55.7071 61.7071C55.8946 61.5196 56 61.2652 56 61C55.9984 59.6744 55.4711 58.4036 54.5338 57.4662C53.5964 56.5289 52.3256 56.0016 51 56H46.351L44.751 54.719C44.0012 54.1134 43.3783 53.3658 42.918 52.519C42.8576 52.399 42.7736 52.2925 42.6711 52.2057C42.5686 52.1189 42.4497 52.0536 42.3214 52.0138C42.1931 51.974 42.0581 51.9604 41.9245 51.9739C41.7909 51.9874 41.6613 52.0276 41.5436 52.0923C41.4259 52.1569 41.3224 52.2446 41.2393 52.3502C41.1562 52.4557 41.0952 52.5769 41.0599 52.7065C41.0247 52.8361 41.0159 52.9715 41.0341 53.1045C41.0524 53.2376 41.0972 53.3656 41.166 53.481C41.6861 54.432 42.3688 55.2845 43.183 56H20.814C22.5772 54.4667 23.6953 52.3234 23.944 50H55C56.3256 49.9984 57.5964 49.4711 58.5338 48.5338C59.4711 47.5964 59.9984 46.3256 60 45V29C60 28.7348 59.8946 28.4804 59.7071 28.2929C59.5196 28.1054 59.2652 28 59 28ZM53.829 60H10.171C10.3786 59.4155 10.7619 58.9095 11.2684 58.5514C11.7749 58.1934 12.3797 58.0008 13 58H51C51.6203 58.0008 52.2251 58.1934 52.7316 58.5514C53.2381 58.9095 53.6214 59.4155 53.829 60V60Z" fill="#464A51"/>
<path d="M55 12H48V11C48 10.7792 47.9269 10.5646 47.7922 10.3896C47.6574 10.2147 47.4685 10.0893 47.255 10.033L44 9.176V6C44 5.76947 43.9204 5.546 43.7747 5.36742C43.6289 5.18883 43.4259 5.0661 43.2 5.02L28.2 2.02C28.0707 1.99301 27.9373 1.99301 27.808 2.02L12.808 5.02C12.5807 5.06448 12.3758 5.18651 12.2284 5.36525C12.0811 5.54398 12.0003 5.76834 12 6V9.176L8.745 10.033C8.53148 10.0893 8.3426 10.2147 8.20783 10.3896C8.07307 10.5646 7.99999 10.7792 8 11V12.1C6.87141 12.3321 5.85735 12.9462 5.12872 13.8387C4.40009 14.7313 4.00145 15.8478 4 17V37C4 37.2652 4.10536 37.5196 4.29289 37.7071C4.48043 37.8946 4.73478 38 5 38C5.26522 38 5.51957 37.8946 5.70711 37.7071C5.89464 37.5196 6 37.2652 6 37V17C6.00256 16.3817 6.19608 15.7794 6.55409 15.2753C6.91209 14.7712 7.41709 14.3901 8 14.184V21C8 21.2652 8.10536 21.5196 8.29289 21.7071C8.48043 21.8946 8.73478 22 9 22C9.26522 22 9.51957 21.8946 9.70711 21.7071C9.89464 21.5196 10 21.2652 10 21V11.771L12 11.245V29C12 29.2652 12.1054 29.5196 12.2929 29.7071C12.4804 29.8946 12.7348 30 13 30C13.0672 30.0006 13.1342 29.9939 13.2 29.98L28 27.02L38 29.02C37.5203 29.6538 37.1174 30.3423 36.8 31.071L32.43 30.252C31.8845 30.1496 31.3223 30.1818 30.792 30.3457C30.2617 30.5097 29.7795 30.8005 29.387 31.193L29 31.585C28.7299 31.8409 28.372 31.9835 28 31.9835C27.628 31.9835 27.2701 31.8409 27 31.585L26.607 31.192C26.2143 30.7995 25.7319 30.5087 25.2015 30.3447C24.6711 30.1808 24.1087 30.1486 23.563 30.251L10 32.8V25C10 24.7348 9.89464 24.4804 9.70711 24.2929C9.51957 24.1054 9.26522 24 9 24C8.73478 24 8.48043 24.1054 8.29289 24.2929C8.10536 24.4804 8 24.7348 8 25V34C8 34.2652 8.10536 34.5196 8.29289 34.7071C8.48043 34.8946 8.73478 35 9 35C9.06205 34.9998 9.12395 34.9941 9.185 34.983L23.933 32.218C24.1588 32.1751 24.3917 32.1882 24.6113 32.256C24.8309 32.3238 25.0306 32.4443 25.193 32.607L25.586 32.999C26.236 33.6205 27.1007 33.9674 28 33.9674C28.8993 33.9674 29.764 33.6205 30.414 32.999L30.807 32.606C30.9694 32.4433 31.1691 32.3228 31.3887 32.255C31.6083 32.1872 31.8412 32.1741 32.067 32.217L36.203 32.992C35.8219 34.851 35.9792 36.7802 36.6564 38.553C37.3336 40.3258 38.5025 41.8685 40.026 43H14V42C14 41.7348 13.8946 41.4804 13.7071 41.2929C13.5196 41.1054 13.2652 41 13 41C12.7348 41 12.4804 41.1054 12.2929 41.2929C12.1054 41.4804 12 41.7348 12 42V43H10C9.73478 43 9.48043 43.1054 9.29289 43.2929C9.10536 43.4804 9 43.7348 9 44C9 44.2652 9.10536 44.5196 9.29289 44.7071C9.48043 44.8946 9.73478 45 10 45H12V46C12 46.2652 12.1054 46.5196 12.2929 46.7071C12.4804 46.8946 12.7348 47 13 47C13.2652 47 13.5196 46.8946 13.7071 46.7071C13.8946 46.5196 14 46.2652 14 46V45H46C47.7876 45.0022 49.543 44.5245 51.083 43.617C52.6231 42.7094 53.8913 41.4052 54.7555 39.8403C55.6196 38.2755 56.0479 36.5075 55.9958 34.7207C55.9436 32.9338 55.4129 31.1938 54.459 29.682C54.3912 29.5664 54.3009 29.4655 54.1934 29.3855C54.0858 29.3055 53.9633 29.2479 53.8331 29.2161C53.7029 29.1844 53.5676 29.1792 53.4353 29.2008C53.303 29.2223 53.1764 29.2703 53.063 29.3418C52.9496 29.4132 52.8518 29.5068 52.7753 29.6168C52.6987 29.7269 52.6451 29.8512 52.6176 29.9824C52.5901 30.1136 52.5892 30.2489 52.6151 30.3805C52.6409 30.512 52.6929 30.637 52.768 30.748C53.8197 32.4178 54.2194 34.4165 53.8905 36.3623C53.5616 38.3081 52.5273 40.0646 50.9853 41.2959C49.4432 42.5273 47.5015 43.1474 45.5311 43.0376C43.5608 42.9277 41.7 42.0958 40.3043 40.7006C38.9086 39.3055 38.0759 37.445 37.9653 35.4748C37.8547 33.5045 38.474 31.5625 39.7048 30.0199C40.9355 28.4774 42.6915 27.4424 44.6372 27.1127C46.5829 26.7831 48.5818 27.1819 50.252 28.233C50.3631 28.3052 50.4874 28.3546 50.6178 28.3783C50.7482 28.402 50.8819 28.3996 51.0113 28.3712C51.1408 28.3427 51.2632 28.2889 51.3717 28.2127C51.4801 28.1365 51.5723 28.0396 51.6429 27.9275C51.7135 27.8154 51.7612 27.6904 51.7831 27.5597C51.805 27.429 51.8007 27.2953 51.7704 27.1663C51.7402 27.0373 51.6846 26.9156 51.607 26.8082C51.5293 26.7009 51.4311 26.6101 51.318 26.541C49.1434 25.1656 46.521 24.6851 44 25.2V18C44 17.7348 43.8946 17.4804 43.7071 17.2929C43.5196 17.1054 43.2652 17 43 17C42.7348 17 42.4804 17.1054 42.2929 17.2929C42.1054 17.4804 42 17.7348 42 18V25.841C41.1431 26.2155 40.343 26.7083 39.623 27.305L29 25.18V4.22L42 6.82V14C42 14.2652 42.1054 14.5196 42.2929 14.7071C42.4804 14.8946 42.7348 15 43 15C43.2652 15 43.5196 14.8946 43.7071 14.7071C43.8946 14.5196 44 14.2652 44 14V11.245L46 11.771V22.059C46 22.3242 46.1054 22.5786 46.2929 22.7661C46.4804 22.9536 46.7348 23.059 47 23.059C47.2652 23.059 47.5196 22.9536 47.7071 22.7661C47.8946 22.5786 48 22.3242 48 22.059V14H55C55.7956 14 56.5587 14.3161 57.1213 14.8787C57.6839 15.4413 58 16.2043 58 17V25C58 25.2652 58.1054 25.5196 58.2929 25.7071C58.4804 25.8946 58.7348 26 59 26C59.2652 26 59.5196 25.8946 59.7071 25.7071C59.8946 25.5196 60 25.2652 60 25V17C59.9984 15.6744 59.4711 14.4036 58.5338 13.4662C57.5964 12.5289 56.3256 12.0016 55 12V12ZM14 6.82L27 4.22V25.18L14 27.78V6.82Z" fill="#464A51"/>
<path d="M39.21 8.25598L33.21 6.96998C33.0816 6.94241 32.9489 6.9404 32.8197 6.96407C32.6905 6.98774 32.5672 7.03663 32.4569 7.10794C32.3466 7.17926 32.2514 7.2716 32.1768 7.37971C32.1022 7.48781 32.0496 7.60955 32.022 7.73798C31.9944 7.86642 31.9924 7.99903 32.0161 8.12824C32.0397 8.25745 32.0886 8.38073 32.1599 8.49104C32.2313 8.60136 32.3236 8.69655 32.4317 8.77118C32.5398 8.8458 32.6616 8.89841 32.79 8.92598L38.79 10.212C38.8594 10.2266 38.9301 10.234 39.001 10.234C39.2481 10.2341 39.4865 10.1427 39.6702 9.97745C39.8539 9.8122 39.9699 9.58479 39.9958 9.33906C40.0218 9.09334 39.9559 8.8467 39.8108 8.64671C39.6657 8.44672 39.4516 8.30753 39.21 8.25598V8.25598Z" fill="#464A51"/>
<path d="M32.79 23.744L38.79 25.03C38.8594 25.0446 38.9301 25.052 39.001 25.052C39.2481 25.0521 39.4865 24.9607 39.6702 24.7954C39.8539 24.6302 39.9699 24.4028 39.9958 24.1571C40.0218 23.9113 39.9559 23.6647 39.8108 23.4647C39.6657 23.2647 39.4516 23.1255 39.21 23.074L33.21 21.788C33.0816 21.7604 32.9489 21.7584 32.8197 21.7821C32.6905 21.8057 32.5672 21.8546 32.4569 21.9259C32.3466 21.9973 32.2514 22.0896 32.1768 22.1977C32.1022 22.3058 32.0496 22.4275 32.022 22.556C31.9944 22.6844 31.9924 22.817 32.0161 22.9462C32.0397 23.0754 32.0886 23.1987 32.1599 23.309C32.2313 23.4194 32.3236 23.5145 32.4317 23.5892C32.5398 23.6638 32.6616 23.7164 32.79 23.744V23.744Z" fill="#464A51"/>
<path d="M32.792 13.978L38.792 15.256C39.0496 15.3065 39.3166 15.2538 39.5356 15.1091C39.7546 14.9644 39.908 14.7395 39.9626 14.4827C40.0172 14.226 39.9687 13.9581 39.8275 13.7368C39.6863 13.5156 39.4638 13.3587 39.208 13.3L33.208 12.022C33.0787 11.9924 32.9448 11.9887 32.8141 12.0113C32.6833 12.0339 32.5584 12.0823 32.4466 12.1537C32.3348 12.225 32.2382 12.3179 32.1627 12.4269C32.0871 12.536 32.0339 12.6589 32.0063 12.7887C31.9787 12.9184 31.9772 13.0524 32.0019 13.1827C32.0266 13.3131 32.077 13.4372 32.1501 13.5479C32.2232 13.6586 32.3176 13.7536 32.4278 13.8275C32.538 13.9013 32.6618 13.9525 32.792 13.978Z" fill="#464A51"/>
<path d="M32.792 18.7L38.792 19.978C39.0496 20.0285 39.3166 19.9757 39.5356 19.8311C39.7546 19.6864 39.908 19.4614 39.9626 19.2047C40.0172 18.948 39.9687 18.6801 39.8275 18.4588C39.6863 18.2376 39.4638 18.0807 39.208 18.022L33.208 16.744C33.0787 16.7143 32.9448 16.7107 32.8141 16.7333C32.6833 16.7559 32.5584 16.8043 32.4466 16.8757C32.3348 16.947 32.2382 17.0399 32.1627 17.1489C32.0871 17.2579 32.0339 17.3809 32.0063 17.5107C31.9787 17.6404 31.9772 17.7744 32.0019 17.9047C32.0266 18.0351 32.077 18.1592 32.1501 18.2699C32.2232 18.3806 32.3176 18.4756 32.4278 18.5494C32.538 18.6233 32.6618 18.6745 32.792 18.7V18.7Z" fill="#464A51"/>
<path d="M17 10.234C17.0709 10.234 17.1416 10.2266 17.211 10.212L23.211 8.92599C23.4704 8.87029 23.697 8.71384 23.841 8.49105C23.9851 8.26825 24.0347 7.99737 23.979 7.73799C23.9233 7.47861 23.7669 7.25197 23.5441 7.10795C23.3213 6.96392 23.0504 6.91429 22.791 6.96999L16.791 8.25599C16.5493 8.30753 16.3353 8.44672 16.1902 8.64671C16.0451 8.84671 15.9792 9.09334 16.0051 9.33907C16.0311 9.58479 16.1471 9.8122 16.3308 9.97745C16.5145 10.1427 16.7529 10.2341 17 10.234V10.234Z" fill="#464A51"/>
<path d="M22.79 21.788L16.79 23.074C16.5483 23.1255 16.3342 23.2648 16.1891 23.4649C16.044 23.665 15.9781 23.9118 16.0042 24.1576C16.0303 24.4034 16.1465 24.6308 16.3304 24.7959C16.5143 24.9611 16.7528 25.0523 17 25.052C17.0709 25.052 17.1416 25.0446 17.211 25.03L23.211 23.744C23.4704 23.6883 23.697 23.5318 23.841 23.309C23.9851 23.0862 24.0347 22.8154 23.979 22.556C23.9233 22.2966 23.7668 22.07 23.5441 21.9259C23.3213 21.7819 23.0504 21.7323 22.791 21.788H22.79Z" fill="#464A51"/>
<path d="M23.978 12.792C23.9228 12.5326 23.7668 12.3058 23.5444 12.1614C23.322 12.017 23.0514 11.9668 22.792 12.022L16.792 13.3C16.6618 13.3255 16.538 13.3767 16.4278 13.4505C16.3176 13.5244 16.2232 13.6194 16.1501 13.7301C16.077 13.8408 16.0266 13.9649 16.0019 14.0953C15.9772 14.2256 15.9787 14.3595 16.0063 14.4893C16.0339 14.6191 16.0871 14.742 16.1627 14.851C16.2382 14.9601 16.3348 15.053 16.4466 15.1243C16.5584 15.1957 16.6833 15.244 16.8141 15.2667C16.9448 15.2893 17.0787 15.2856 17.208 15.256L23.208 13.978C23.4674 13.9228 23.6942 13.7668 23.8386 13.5444C23.983 13.322 24.0331 13.0514 23.978 12.792V12.792Z" fill="#464A51"/>
<path d="M22.792 16.744L16.792 18.022C16.6618 18.0475 16.538 18.0987 16.4278 18.1725C16.3176 18.2464 16.2232 18.3414 16.1501 18.4521C16.077 18.5628 16.0266 18.6869 16.0019 18.8173C15.9772 18.9476 15.9787 19.0816 16.0063 19.2113C16.0339 19.3411 16.0871 19.464 16.1627 19.5731C16.2382 19.6821 16.3348 19.775 16.4466 19.8463C16.5584 19.9177 16.6833 19.9661 16.8141 19.9887C16.9448 20.0113 17.0787 20.0076 17.208 19.978L23.208 18.7C23.4638 18.6413 23.6863 18.4844 23.8275 18.2632C23.9687 18.0419 24.0172 17.774 23.9626 17.5173C23.908 17.2605 23.7546 17.0356 23.5356 16.8909C23.3166 16.7462 23.0496 16.6935 22.792 16.744Z" fill="#464A51"/>
<path d="M51.447 34.1L43.447 30.1C43.2941 30.0236 43.1242 29.9876 42.9535 29.9956C42.7828 30.0035 42.617 30.0551 42.4718 30.1454C42.3267 30.2356 42.2072 30.3616 42.1246 30.5112C42.042 30.6608 41.9991 30.8291 42 31V39C41.9991 39.1709 42.042 39.3392 42.1246 39.4888C42.2072 39.6384 42.3267 39.7643 42.4718 39.8546C42.617 39.9449 42.7828 39.9964 42.9535 40.0044C43.1242 40.0123 43.2941 39.9764 43.447 39.9L51.447 35.9C51.6134 35.817 51.7534 35.6894 51.8513 35.5313C51.9491 35.3732 52.0009 35.1909 52.0009 35.005C52.0009 34.8191 51.9491 34.6368 51.8513 34.4787C51.7534 34.3206 51.6134 34.1929 51.447 34.11V34.1ZM44 37.382V32.618L48.764 35L44 37.382Z" fill="#464A51"/>
<path d="M24 39V37C24 36.7348 23.8946 36.4804 23.7071 36.2929C23.5196 36.1054 23.2652 36 23 36C22.7348 36 22.4804 36.1054 22.2929 36.2929C22.1054 36.4804 22 36.7348 22 37V39C22 39.2652 22.1054 39.5196 22.2929 39.7071C22.4804 39.8946 22.7348 40 23 40C23.2652 40 23.5196 39.8946 23.7071 39.7071C23.8946 39.5196 24 39.2652 24 39Z" fill="#464A51"/>
<path d="M27 39V37C27 36.7348 26.8946 36.4804 26.7071 36.2929C26.5196 36.1054 26.2652 36 26 36C25.7348 36 25.4804 36.1054 25.2929 36.2929C25.1054 36.4804 25 36.7348 25 37V39C25 39.2652 25.1054 39.5196 25.2929 39.7071C25.4804 39.8946 25.7348 40 26 40C26.2652 40 26.5196 39.8946 26.7071 39.7071C26.8946 39.5196 27 39.2652 27 39Z" fill="#464A51"/>
<path d="M19.894 36.553C19.7755 36.3158 19.5677 36.1354 19.3162 36.0513C19.0648 35.9673 18.7902 35.9866 18.553 36.105L16.978 36.893C16.9543 36.6495 16.8412 36.4235 16.6605 36.2586C16.4799 36.0937 16.2446 36.0015 16 36C15.7348 36 15.4804 36.1053 15.2929 36.2929C15.1054 36.4804 15 36.7348 15 37V39C15 39.2652 15.1054 39.5195 15.2929 39.7071C15.4804 39.8946 15.7348 40 16 40C16.2446 39.9984 16.4799 39.9063 16.6605 39.7413C16.8412 39.5764 16.9543 39.3504 16.978 39.107L18.553 39.895C18.7904 40.0135 19.0651 40.0329 19.3168 39.9489C19.4414 39.9073 19.5566 39.8416 19.6558 39.7555C19.755 39.6693 19.8363 39.5645 19.895 39.447C19.9537 39.3294 19.9887 39.2015 19.9979 39.0705C20.0072 38.9394 19.9905 38.8078 19.9489 38.6832C19.9073 38.5586 19.8416 38.4434 19.7555 38.3442C19.6694 38.245 19.5645 38.1637 19.447 38.105L19.236 38.005L19.447 37.905C19.5658 37.8463 19.6717 37.7645 19.7586 37.6645C19.8455 37.5645 19.9117 37.4483 19.9533 37.3225C19.9948 37.1967 20.011 37.0639 20.0009 36.9318C19.9907 36.7997 19.9544 36.6709 19.894 36.553V36.553Z" fill="#464A51"/>
<path d="M29.105 39.447C29.1637 39.5646 29.2449 39.6694 29.3441 39.7556C29.4433 39.8417 29.5585 39.9075 29.6832 39.9491C29.8078 39.9907 29.9394 40.0073 30.0705 39.998C30.2015 39.9888 30.3295 39.9537 30.447 39.895L32.022 39.107C32.0455 39.3505 32.1586 39.5766 32.3392 39.7416C32.5199 39.9066 32.7553 39.9986 33 40C33.2652 40 33.5196 39.8946 33.7071 39.7071C33.8946 39.5196 34 39.2652 34 39V37C34 36.7348 33.8946 36.4804 33.7071 36.2929C33.5196 36.1053 33.2652 36 33 36C32.7553 36.0013 32.5199 36.0934 32.3392 36.2584C32.1586 36.4233 32.0455 36.6495 32.022 36.893L30.447 36.1C30.2096 35.9814 29.9349 35.962 29.6832 36.046C29.4315 36.1301 29.2236 36.3106 29.105 36.548C28.9864 36.7854 28.967 37.0601 29.0511 37.3118C29.1351 37.5634 29.3156 37.7714 29.553 37.89L29.764 37.99L29.553 38.09C29.4335 38.1486 29.3269 38.2305 29.2395 38.3308C29.152 38.4311 29.0855 38.5479 29.0438 38.6743C29.002 38.8007 28.986 38.9341 28.9965 39.0668C29.007 39.1995 29.0439 39.3287 29.105 39.447Z" fill="#464A51"/>
</svg>
