<?xml version="1.0" encoding="UTF-8" standalone="no"?>
<!-- Created with Inkscape (http://www.inkscape.org/) -->

<svg
   version="1.1"
   id="svg92"
   width="512"
   height="512"
   viewBox="0 0 512 512"
   sodipodi:docname="table.svg"
   inkscape:export-filename="table.svg"
   inkscape:export-xdpi="75"
   inkscape:export-ydpi="75"
   inkscape:version="1.2.2 (b0a8486541, 2022-12-01)"
   xmlns:inkscape="http://www.inkscape.org/namespaces/inkscape"
   xmlns:sodipodi="http://sodipodi.sourceforge.net/DTD/sodipodi-0.dtd"
   xmlns="http://www.w3.org/2000/svg"
   xmlns:svg="http://www.w3.org/2000/svg">
  <defs
     id="defs96" />
  <sodipodi:namedview
     id="namedview94"
     pagecolor="#ffffff"
     bordercolor="#000000"
     borderopacity="0.25"
     inkscape:showpageshadow="2"
     inkscape:pageopacity="0.0"
     inkscape:pagecheckerboard="0"
     inkscape:deskcolor="#d1d1d1"
     showgrid="false"
     inkscape:zoom="0.78030338"
     inkscape:cx="-360.11634"
     inkscape:cy="222.99019"
     inkscape:window-width="1366"
     inkscape:window-height="701"
     inkscape:window-x="0"
     inkscape:window-y="0"
     inkscape:window-maximized="1"
     inkscape:current-layer="g98" />
  <g
     inkscape:groupmode="layer"
     inkscape:label="Image"
     id="g98">
    <g
       id="g276"
       transform="translate(1.2815528,3.5922397)">
      <path
         style="fill:#d0e1e6"
         d="m 235.8125,511.31689 c 0.72187,-0.28887 1.58437,-0.25335 1.91667,0.0789 0.33229,0.33229 -0.25834,0.56864 -1.3125,0.52522 -1.16495,-0.048 -1.4019,-0.28494 -0.60417,-0.60416 z m 37.9375,0.0208 c 0.6875,-0.27741 1.8125,-0.27741 2.5,0 0.6875,0.27741 0.125,0.50439 -1.25,0.50439 -1.375,0 -1.9375,-0.22698 -1.25,-0.50439 z M 130.44113,479.42584 c -1.06762,-0.86578 -1.32832,-1.25813 -0.57933,-0.87188 0.75443,0.38905 1.75112,0.0876 2.23469,-0.67584 0.64788,-1.02289 0.87683,-0.79814 0.8882,0.87188 0.0182,2.67744 -0.0523,2.69616 -2.54356,0.67584 z m -11.40086,-6.78175 c -6.15645,-4.00473 -7.81018,-5.5184 -6.55516,-6 2.35572,-0.90398 3.26931,-0.77472 1.67344,0.23676 -0.96334,0.61057 0.79833,2.20573 6.25,5.65923 6.8597,4.34545 8.33515,5.45992 7.2284,5.45992 -0.19968,0 -4.06818,-2.41016 -8.59668,-5.35591 z M 127.92431,470.25 125.5,467.5 l 2.75,2.42431 c 2.57029,2.26589 3.20859,3.07569 2.42431,3.07569 -0.17912,0 -1.41662,-1.2375 -2.75,-2.75 z m -37.051865,-18 c -1.243871,-1.58606 -1.208501,-1.62143 0.377555,-0.37756 0.9625,0.75485 1.75,1.54235 1.75,1.75 0,0.82304 -0.821186,0.29331 -2.127555,-1.37244 z m -8,-7 c -1.243871,-1.58606 -1.208501,-1.62143 0.377555,-0.37756 0.9625,0.75485 1.75,1.54235 1.75,1.75 0,0.82304 -0.821186,0.29331 -2.127555,-1.37244 z M 427,446.68709 c 0,-0.1721 1.4625,-1.6346 3.25,-3.25 l 3.25,-2.93709 -2.93709,3.25 C 427.82513,446.77946 427,447.45965 427,446.68709 Z M 78.872445,441.25 C 77.628574,439.66394 77.663944,439.62857 79.25,440.87244 80.915748,442.17881 81.445479,443 80.622445,443 c -0.207656,0 -0.995156,-0.7875 -1.75,-1.75 z M 67.924314,430.25 65.5,427.5 l 2.75,2.42431 C 70.820289,432.1902 71.458588,433 70.674314,433 c -0.179127,0 -1.416627,-1.2375 -2.75,-2.75 z M 443,430.5 c 1.29175,-1.375 2.57363,-2.5 2.84863,-2.5 0.275,0 -0.55688,1.125 -1.84863,2.5 -1.29175,1.375 -2.57363,2.5 -2.84863,2.5 -0.275,0 0.55688,-1.125 1.84863,-2.5 z M 59.872445,421.25 c -1.243871,-1.58606 -1.208501,-1.62143 0.377555,-0.37756 0.9625,0.75485 1.75,1.54235 1.75,1.75 0,0.82304 -0.821186,0.29331 -2.127555,-1.37244 z M 127,396.62244 c 0,-0.20765 0.7875,-0.99515 1.75,-1.75 1.58606,-1.24387 1.62143,-1.2085 0.37756,0.37756 C 127.82119,396.91575 127,397.44548 127,396.62244 Z M 132.232,385 c 0,-1.925 0.2058,-2.7125 0.45733,-1.75 0.25152,0.9625 0.25152,2.5375 0,3.5 -0.25153,0.9625 -0.45733,0.175 -0.45733,-1.75 z m -4.82701,-10.25 -1.90499,-2.25 2.25,1.90499 c 2.11444,1.79022 2.70524,2.59501 1.90499,2.59501 -0.18976,0 -1.20226,-1.0125 -2.25,-2.25 z M 0.07894737,275.41667 c 0.04798392,-1.16495 0.2849403,-1.4019 0.60416667,-0.60417 0.28887061,0.72187 0.25334429,1.58438 -0.0789474,1.91667 -0.33229167,0.33229 -0.56864035,-0.25834 -0.52521927,-1.3125 z m 511.00000263,0 c 0.048,-1.16495 0.28494,-1.4019 0.60416,-0.60417 0.28887,0.72187 0.25335,1.58438 -0.0789,1.91667 -0.33229,0.33229 -0.56864,-0.25834 -0.52522,-1.3125 z M 360.34281,247.5 c 0.004,-9.9 0.17886,-16.0875 0.3894,-13.75 L 361.115,238 h 57.87511 c 57.44889,0 57.8799,0.0151 58.52512,2.04799 C 479.1106,245.07455 480.00083,245 418.37756,245 H 361 v 2.5 2.5 h 56.56574 c 37.07985,0 57.23206,0.3566 58.5,1.03518 C 477.12958,251.60453 478,252.9387 478,254 c 0,1.0613 -0.87042,2.39547 -1.93426,2.96482 C 474.79787,257.64336 454.66435,258 417.62611,258 h -56.50538 l -0.39226,3.75 c -0.21575,2.0625 -0.38929,-4.35 -0.38566,-14.25 z M 493.232,248 c 0,-1.925 0.2058,-2.7125 0.45733,-1.75 0.25152,0.9625 0.25152,2.5375 0,3.5 -0.25153,0.9625 -0.45733,0.175 -0.45733,-1.75 z M 0.15789474,236 c 0,-1.375 0.22697368,-1.9375 0.50438596,-1.25 0.27741228,0.6875 0.27741228,1.8125 0,2.5 -0.27741228,0.6875 -0.50438596,0.125 -0.50438596,-1.25 z M 487.92431,235.25 485.5,232.5 l 2.75,2.42431 c 1.5125,1.33338 2.75,2.57088 2.75,2.75 0,0.78428 -0.8098,0.14598 -3.07569,-2.42431 z m 23.15464,1.16667 c 0.048,-1.16495 0.28494,-1.4019 0.60416,-0.60417 0.28887,0.72187 0.25335,1.58437 -0.0789,1.91667 -0.33229,0.33229 -0.56864,-0.25834 -0.52522,-1.3125 z m -99.75737,-27.1662 c 16.40187,-0.15425 42.95187,-0.15414 59,2.4e-4 16.04813,0.15438 2.62842,0.28058 -29.82158,0.28045 -32.45,-1.4e-4 -45.58029,-0.12645 -29.17842,-0.28069 z m -29.35579,-9.31439 C 379.29993,194.95487 378.75909,195 441.12244,195 H 499 v 3.5 3.5 h -57.96482 c -57.53977,0 -57.97291,-0.0151 -59.06939,-2.06392 z m -0.0354,-12.5199 c -0.9538,-1.14927 -1.02613,-2.04098 -0.26359,-3.25 0.95792,-1.51883 6.1928,-1.689 59.19201,-1.92424 L 499,181.98388 V 185.49194 189 h -57.87756 c -51.58815,0 -58.02039,-0.17211 -59.19201,-1.58382 z m 28.89133,-13.16573 c 16.67697,-0.15399 43.67697,-0.15389 60,2.4e-4 16.32303,0.15412 2.67824,0.28012 -30.32176,0.27999 -33,-1.3e-4 -46.35521,-0.12623 -29.67824,-0.28023 z M 495,157.5 c 1.29175,-1.375 2.57363,-2.5 2.84863,-2.5 0.275,0 -0.55688,1.125 -1.84863,2.5 -1.29175,1.375 -2.57363,2.5 -2.84863,2.5 -0.275,0 0.55688,-1.125 1.84863,-2.5 z M 360.17471,136.25 360,118 l 59.75,0.24192 59.75,0.24191 -59.25,0.26602 -59.25,0.26601 V 122.50793 126 h 57.3 c 43.23333,0 57.59459,0.29459 58.5,1.2 1.80186,1.80186 1.4457,4.59814 -0.73426,5.76482 C 474.7978,133.6434 454.64559,134 417.56574,134 H 361 v 2.5 2.5 h 57.37756 c 51.13194,0 57.52063,0.1724 58.69201,1.58382 0.9538,1.14927 1.02613,2.04098 0.26359,3.25 -0.9577,1.51847 -6.15565,1.68906 -58.6349,1.92428 l -57.58406,0.2581 -0.38239,4.2419 c -0.21032,2.33304 -0.46101,-3.9706 -0.5571,-14.0081 z m 117.63779,17.06689 c 0.72187,-0.28887 1.58438,-0.25335 1.91667,0.0789 0.33229,0.33229 -0.25834,0.56864 -1.3125,0.52522 -1.16495,-0.048 -1.4019,-0.28494 -0.60417,-0.60416 z M 488,148.5 c 1.29175,-1.375 2.57363,-2.5 2.84863,-2.5 0.275,0 -0.55688,1.125 -1.84863,2.5 -1.29175,1.375 -2.57363,2.5 -2.84863,2.5 -0.275,0 0.55688,-1.125 1.84863,-2.5 z m 16.15789,-8.5 c 0,-1.375 0.22698,-1.9375 0.50439,-1.25 0.27741,0.6875 0.27741,1.8125 0,2.5 -0.27741,0.6875 -0.50439,0.125 -0.50439,-1.25 z m -10.88553,-4 c 0,-2.475 0.19502,-3.4875 0.43337,-2.25 0.23836,1.2375 0.23836,3.2625 0,4.5 -0.23835,1.2375 -0.43337,0.225 -0.43337,-2.25 z m 10.88553,-4 c 0,-1.375 0.22698,-1.9375 0.50439,-1.25 0.27741,0.6875 0.27741,1.8125 0,2.5 -0.27741,0.6875 -0.50439,0.125 -0.50439,-1.25 z M 484,121 c -0.90129,-0.58246 -1.02463,-0.97549 -0.30902,-0.98469 0.65504,-0.008 1.4691,0.43469 1.80902,0.98469 0.7673,1.24153 0.42112,1.24153 -1.5,0 z m -15.22357,-13.7335 c 2.35204,-0.21124 5.95204,-0.20827 8,0.007 2.04796,0.21487 0.12357,0.38771 -4.27643,0.38408 -4.4,-0.004 -6.07561,-0.17944 -3.72357,-0.39069 z M 66.5,83 c 0.995486,-1.1 2.034975,-2 2.309975,-2 0.275,0 -0.314489,0.9 -1.309975,2 -0.995486,1.1 -2.034975,2 -2.309975,2 -0.275,0 0.314489,-0.9 1.309975,-2 z M 443.43709,81.75 440.5,78.5 l 3.25,2.937091 C 446.77946,84.174872 447.45965,85 446.68709,85 c -0.1721,0 -1.6346,-1.4625 -3.25,-3.25 z m -14,-14 -2.93709,-3.25 3.25,2.937091 c 1.7875,1.6154 3.25,3.0779 3.25,3.25 0,0.772561 -0.82513,0.09236 -3.56291,-2.937091 z M 76,26.687091 c 0,-0.1721 1.4625,-1.6346 3.25,-3.25 L 82.5,20.5 79.562909,23.75 C 76.825128,26.779455 76,27.459652 76,26.687091 Z m 32.26903,-15.380082 c 0.97297,-0.253543 2.32297,-0.236869 3,0.03705 0.67703,0.273923 -0.11903,0.481368 -1.76903,0.460988 -1.65,-0.02038 -2.20394,-0.244498 -1.23097,-0.498042 z M 235.8125,0.31688596 c 0.72187,-0.28887061 1.58437,-0.25334429 1.91667,0.0789474 0.33229,0.33229167 -0.25834,0.56864035 -1.3125,0.5252193 -1.16495,-0.0479839 -1.4019,-0.2849403 -0.60417,-0.6041667 z m 39,0 c 0.72187,-0.28887061 1.58438,-0.25334429 1.91667,0.0789474 0.33229,0.33229167 -0.25834,0.56864035 -1.3125,0.5252193 -1.16495,-0.0479839 -1.4019,-0.2849403 -0.60417,-0.6041667 z"
         id="path306" />
      <path
         style="fill:#60a0f7"
         d="m 357.25,163.49189 c -2.72021,-1.94078 -2.9158,-5.57938 -0.42126,-7.8369 1.65861,-1.50102 7.4499,-1.65703 62.25,-1.67695 56.48638,-0.0205 60.68176,-0.14158 64.42126,-1.85877 14.94266,-6.8617 13.44093,-27.48395 -2.39922,-32.94694 C 478.64842,118.32656 460.94634,118 417.55078,118 c -45.45061,0 -60.44405,-0.29327 -61.35078,-1.2 -1.61121,-1.61121 -1.52466,-6.28567 0.14199,-7.66887 0.95347,-0.79131 19.40406,-1.12325 63.72989,-1.14655 l 62.38789,-0.0328 6.21373,3.05901 c 10.26578,5.05382 15.59378,13.592 15.59378,24.9892 0,10.10088 -4.36153,18.38589 -12.52359,23.78935 l -4.09449,2.71065 -56.0746,0.69862 c -30.84103,0.38424 -59.6746,0.96861 -64.0746,1.29859 -6.43704,0.48276 -8.43958,0.28635 -10.25,-1.00532 z"
         id="path304" />
      <path
         style="fill:#a59a9c"
         d="m 239.26903,511.30701 c 0.97297,-0.25354 2.32297,-0.23687 3,0.0371 0.67703,0.27393 -0.11903,0.48137 -1.76903,0.46099 -1.65,-0.0204 -2.20394,-0.2445 -1.23097,-0.49804 z m 30.48097,0.0307 c 0.6875,-0.27741 1.8125,-0.27741 2.5,0 0.6875,0.27741 0.125,0.50439 -1.25,0.50439 -1.375,0 -1.9375,-0.22698 -1.25,-0.50439 z m 13.0625,-1.02083 c 0.72187,-0.28887 1.58438,-0.25335 1.91667,0.0789 0.33229,0.33229 -0.25834,0.56864 -1.3125,0.52522 -1.16495,-0.048 -1.4019,-0.28494 -0.60417,-0.60416 z M 116.75,465.33772 c 0.6875,-0.27741 1.8125,-0.27741 2.5,0 0.6875,0.27741 0.125,0.50439 -1.25,0.50439 -1.375,0 -1.9375,-0.22698 -1.25,-0.50439 z M 436.5,437 c 2.14824,-2.2 4.1309,-4 4.4059,-4 0.275,0 -1.25766,1.8 -3.4059,4 -2.14824,2.2 -4.1309,4 -4.4059,4 -0.275,0 1.25766,-1.8 3.4059,-4 z M 73.946167,436.25 70.5,432.5 l 3.75,3.44617 C 77.740419,439.15378 78.459787,440 77.696167,440 c -0.167108,0 -1.854608,-1.6875 -3.75,-3.75 z M 448,424.62244 c 0,-0.20765 0.7875,-0.99515 1.75,-1.75 1.58606,-1.24387 1.62143,-1.2085 0.37756,0.37756 C 448.82119,424.91575 448,425.44548 448,424.62244 Z M 107.40499,395.75 105.5,393.5 l 2.25,1.90499 c 2.11444,1.79022 2.70524,2.59501 1.90499,2.59501 -0.18976,0 -1.20226,-1.0125 -2.25,-2.25 z M 103.232,385 c 0,-1.925 0.2058,-2.7125 0.45733,-1.75 0.25152,0.9625 0.25152,2.5375 0,3.5 -0.25153,0.9625 -0.45733,0.175 -0.45733,-1.75 z M 1.0789474,283.41667 c 0.047984,-1.16495 0.2849403,-1.4019 0.6041666,-0.60417 0.2888706,0.72187 0.2533443,1.58438 -0.078947,1.91667 -0.3322917,0.33229 -0.5686404,-0.25834 -0.5252196,-1.3125 z m 509.0000026,0 c 0.048,-1.16495 0.28494,-1.4019 0.60416,-0.60417 0.28887,0.72187 0.25335,1.58438 -0.0789,1.91667 -0.33229,0.33229 -0.56864,-0.25834 -0.52522,-1.3125 z M 0.15789474,272 c 0,-1.375 0.22697368,-1.9375 0.50438596,-1.25 0.27741228,0.6875 0.27741228,1.8125 0,2.5 -0.27741228,0.6875 -0.50438596,0.125 -0.50438596,-1.25 z M 511.19495,271.5 c 0.0204,-1.65 0.2445,-2.20394 0.49804,-1.23097 0.25354,0.97297 0.23687,2.32297 -0.0371,3 -0.27393,0.67703 -0.48137,-0.11903 -0.46099,-1.76903 z M 389.25,265.25058 c 16.3625,-0.15419 43.1375,-0.15419 59.5,0 16.3625,0.15418 2.975,0.28033 -29.75,0.28033 -32.725,0 -46.1125,-0.12615 -29.75,-0.28033 z M 0.15789474,240 c 0,-1.375 0.22697368,-1.9375 0.50438596,-1.25 0.27741228,0.6875 0.27741228,1.8125 0,2.5 -0.27741228,0.6875 -0.50438596,0.125 -0.50438596,-1.25 z M 511.15789,240 c 0,-1.375 0.22698,-1.9375 0.50439,-1.25 0.27741,0.6875 0.27741,1.8125 0,2.5 -0.27741,0.6875 -0.50439,0.125 -0.50439,-1.25 z m -11.90571,-41.5 c 0.0111,-2.2 0.21589,-2.98225 0.45508,-1.73834 0.23919,1.24391 0.23011,3.04391 -0.0202,4 -0.25029,0.95609 -0.446,-0.0617 -0.4349,-2.26166 z m 0,-13 c 0.0111,-2.2 0.21589,-2.98225 0.45508,-1.73834 0.23919,1.24391 0.23011,3.04391 -0.0202,4 -0.25029,0.95609 -0.446,-0.0617 -0.4349,-2.26166 z M 70.605952,78.847941 c 1.041726,-1.458633 2.094048,-2.458633 2.338492,-2.222223 0.244445,0.236411 -0.607877,1.429838 -1.894048,2.65206 L 68.711904,81.5 Z M 436.45295,74.75 432.5,70.5 l 4.25,3.952948 c 2.3375,2.174121 4.25,4.086621 4.25,4.25 0,0.756577 -0.87085,-4.9e-4 -4.54705,-3.952948 z M 238.75,0.3377193 c 0.6875,-0.27741228 1.8125,-0.27741228 2.5,0 0.6875,0.27741228 0.125,0.50438596 -1.25,0.50438596 -1.375,0 -1.9375,-0.22697368 -1.25,-0.50438596 z m 32,0 c 0.6875,-0.27741228 1.8125,-0.27741228 2.5,0 0.6875,0.27741228 0.125,0.50438596 -1.25,0.50438596 -1.375,0 -1.9375,-0.22697368 -1.25,-0.50438596 z"
         id="path302" />
      <path
         style="fill:#fdb915"
         d="m 48.988848,235.75 c -4.176933,-15.45103 -5.280378,-23.74734 -5.353421,-40.25 -0.09877,-22.31574 2.983251,-35.74588 12.621704,-55 6.848458,-13.68072 17.947629,-28.14792 28.823271,-37.56965 l 6.053282,-5.244051 6.8374,6.785011 6.837396,6.785 -7.154238,5.69937 c -31.90485,25.41672 -45.023217,61.24061 -36.990806,101.0152 1.255358,6.21624 5.033824,19.47066 7.043506,24.70781 C 68.102651,243.70989 66.348242,244 59.716539,244 H 51.2191 Z M 193.25,157.89749 c -2.3375,-0.55836 -4.25,-1.33089 -4.25,-1.71676 0,-0.38586 8.0803,-8.77252 17.95623,-18.63701 C 227.48995,117.03377 226.5,117.23448 226.5,133.5812 c 0,8.54168 -0.36526,10.86104 -2.39184,15.18787 -2.04309,4.36208 -3.12048,5.42013 -7.38909,7.25644 -5.79252,2.49187 -17.09856,3.39368 -23.46907,1.87198 z"
         id="path300" />
      <path
         style="fill:#fd921d"
         d="M 40.123397,240.75 C 28.893169,205.37346 30.926072,169.85619 45.873024,140.2971 53.45001,125.31285 67.107452,108.65677 80.659019,97.873464 l 6.515997,-5.184935 9.162492,9.395641 c 5.853542,6.00249 6.568362,6.90494 1.979334,2.49888 l -7.183158,-6.896751 -6.053282,5.244051 C 74.391546,112.19026 63.13733,126.7838 56.493099,140 c -14.359175,28.56219 -17.021128,57.73743 -8.394091,92 1.592584,6.325 2.896819,11.6125 2.8983,11.75 0.0015,0.1375 -2.21241,0.25 -4.919756,0.25 -4.675232,0 -4.974262,-0.16322 -5.954155,-3.25 z M 58.252183,198.5 c 0.0111,-2.2 0.215885,-2.98225 0.455078,-1.73834 0.239193,1.24391 0.230112,3.04391 -0.02018,4 C 58.436788,201.71775 58.241084,200.7 58.252183,198.5 Z m -0.05723,-8 c 0.02038,-1.65 0.244498,-2.20394 0.498042,-1.23097 0.253543,0.97297 0.236869,2.32297 -0.03705,3 C 58.382014,192.94606 58.174569,192.15 58.194949,190.5 Z M 179,171.83153 c -1.925,-0.54345 -3.8279,-1.30327 -4.22867,-1.68848 -0.40077,-0.38522 10.84863,-12.16249 24.99867,-26.17172 14.15004,-14.00923 17.51545,-17.14189 7.47868,-6.96146 C 197.2119,147.1903 189,155.8209 189,156.18898 c 0,0.36807 2.57817,1.20445 5.72927,1.85862 7.05231,1.46405 15.93923,0.63498 22.0184,-2.05413 2.50877,-1.10975 4.72231,-1.85682 4.91898,-1.66015 0.80833,0.80833 -7.97375,9.65525 -12.41097,12.50261 -8.35156,5.35918 -21.35983,7.50701 -30.25568,4.9956 z M 227.19495,133.5 c 0.0204,-1.65 0.2445,-2.20394 0.49804,-1.23097 0.25354,0.97297 0.23687,2.32297 -0.0371,3 -0.27393,0.67703 -0.48137,-0.11903 -0.46099,-1.76903 z M 92,121.62244 c 0,-0.20765 0.7875,-0.99515 1.75,-1.75 1.586056,-1.24387 1.621426,-1.2085 0.377555,0.37756 C 92.821186,121.91575 92,122.44548 92,121.62244 Z"
         id="path298" />
      <path
         style="fill:#a87e7e"
         d="m 190.62644,503.39888 c -16.46798,-4.42444 -28.93796,-9.04764 -44.76678,-16.59715 -12.34935,-5.88998 -12.65387,-6.11335 -13.22784,-9.70274 -1.1978,-7.49061 -10.55963,-13.31738 -18.06662,-11.2446 -2.91192,0.80402 -3.95732,0.56702 -7.23449,-1.64007 C 102.32598,460.84375 91.67445,452.33483 86,447.1744 l -4.5,-4.09237 57.5156,-0.041 c 65.2154,-0.0465 62.28417,-0.39678 66.70948,7.97161 2.16564,4.0953 2.27492,5.35022 2.27492,26.12443 0,17.7196 -0.30243,22.57833 -1.60858,25.84271 -0.88472,2.21113 -1.89722,3.9882 -2.25,3.94904 -0.35278,-0.0392 -6.43452,-1.62762 -13.51498,-3.52992 z M 57.494885,417.58602 c -0.547187,-0.7777 -3.565484,-4.7717 -6.707328,-8.87556 -3.141843,-4.10386 -8.541843,-11.9673 -12,-17.4743 L 32.5,381.22343 33,370.1791 c 0.538629,-11.89758 1.444654,-14.18174 7.384682,-18.61731 2.724281,-2.03429 3.773581,-2.06537 78.676338,-2.33017 84.20064,-0.29768 80.27537,-0.58817 85.55716,6.33182 l 2.88182,3.77565 0.29398,23.08045 c 0.28514,22.38694 0.22504,23.21568 -2,27.58046 -1.674,3.28381 -3.49987,5.1081 -6.75587,6.75 L 194.57622,419 H 126.533 c -57.507492,0 -68.197277,-0.21894 -69.038115,-1.41398 z M 125.75914,398.0054 c 14.50024,-8.8409 4.84571,-31.32455 -11.51146,-26.80812 -4.96067,1.36971 -9.91847,6.53095 -10.80309,11.2464 -0.97882,5.21755 2.01143,12.27311 6.4769,15.28239 4.33873,2.92387 11.29892,3.04663 15.83765,0.27933 z m -22.34662,-69.18803 c -4.993313,-1.06377 -10.005723,-5.72409 -11.486538,-10.67968 -0.642941,-2.15162 -0.951984,-9.59465 -0.756493,-18.21949 0.319735,-14.1064 0.419607,-14.69848 3.063306,-18.16072 5.623165,-7.36421 -11.02253,-6.83711 206.267205,-6.53162 l 195,0.27414 3.67905,2.28771 c 2.15965,1.34291 4.53432,4.05447 5.75,6.56572 2.86882,5.9262 2.83983,19.4709 -0.0675,31.54958 -2.01674,8.37858 -2.35228,9.00453 -5.89381,10.99499 l -3.75532,2.11061 -193.85619,0.33978 c -107.76536,0.18888 -195.67143,-0.0469 -197.94367,-0.53102 z M 365.232,192 c 0,-1.925 0.2058,-2.7125 0.45733,-1.75 0.25152,0.9625 0.25152,2.5375 0,3.5 -0.25153,0.9625 -0.45733,0.175 -0.45733,-1.75 z M 369,180.62244 c 0,-0.20765 0.7875,-0.99515 1.75,-1.75 1.58606,-1.24387 1.62143,-1.2085 0.37756,0.37756 C 369.82119,180.91575 369,181.44548 369,180.62244 Z m 135.07895,-12.20577 c 0.048,-1.16495 0.28494,-1.4019 0.60416,-0.60417 0.28887,0.72187 0.25335,1.58437 -0.0789,1.91667 -0.33229,0.33229 -0.56864,-0.25834 -0.52522,-1.3125 z m -7.82895,-5.106 c 0.9625,-0.25152 2.5375,-0.25152 3.5,0 0.9625,0.25153 0.175,0.45733 -1.75,0.45733 -1.925,0 -2.7125,-0.2058 -1.75,-0.45733 z M 66.194949,54.5 c 0.02038,-1.65 0.244498,-2.203936 0.498042,-1.230968 0.253543,0.972967 0.236869,2.322967 -0.03705,3 C 66.382014,56.946064 66.174569,56.15 66.194949,54.5 Z M 138.40499,23.75 136.5,21.5 l 2.25,1.904988 C 140.86444,25.195206 141.45524,26 140.65499,26 c -0.18976,0 -1.20226,-1.0125 -2.25,-2.25 z"
         id="path296" />
      <path
         style="fill:#7bbc3a"
         d="M 355.66667,274.33333 C 354.56183,273.2285 354.9166,268.4834 356.2,267.2 c 0.90634,-0.90634 15.77299,-1.20136 60.75,-1.20558 39.80262,-0.004 60.84862,-0.36613 63.4661,-1.09286 12.46432,-3.46067 17.65976,-17.98412 9.90581,-27.69093 -6.04,-7.56119 -2.55503,-7.20734 -71.00048,-7.20908 C 352.71034,229.99986 355,230.1957 355,224.5 c 0,-4.73543 2.36813,-5.69577 12.38882,-5.02397 5.01115,0.33596 34.31118,0.92879 65.11118,1.3174 55.21929,0.69672 56.04182,0.73666 59,2.86519 10.13641,7.29357 14.85525,18.49621 12.52309,29.73014 -1.56487,7.53797 -6.40332,14.34319 -13.05467,18.36124 L 485.58847,275 H 420.9609 c -35.54516,0 -64.92757,-0.3 -65.29423,-0.66667 z"
         id="path294" />
      <path
         style="fill:#916969"
         d="m 243.8125,511.31689 c 0.72187,-0.28887 1.58437,-0.25335 1.91667,0.0789 0.33229,0.33229 -0.25834,0.56864 -1.3125,0.52522 -1.16495,-0.048 -1.4019,-0.28494 -0.60417,-0.60416 z m 23,0 c 0.72187,-0.28887 1.58438,-0.25335 1.91667,0.0789 0.33229,0.33229 -0.25834,0.56864 -1.3125,0.52522 -1.16495,-0.048 -1.4019,-0.28494 -0.60417,-0.60416 z M 426,446.62244 c 0,-0.20765 0.7875,-0.99515 1.75,-1.75 1.58606,-1.24387 1.62143,-1.2085 0.37756,0.37756 C 426.82119,446.91575 426,447.44548 426,446.62244 Z m -316.17861,-4.37196 c 16.12677,-0.1545 42.22677,-0.15439 58,2.5e-4 15.77324,0.15465 2.57861,0.28106 -29.32139,0.28092 -31.9,-1.4e-4 -44.805373,-0.12666 -28.67861,-0.28117 z M 66.872445,428.25 c -1.243871,-1.58606 -1.208501,-1.62143 0.377555,-0.37756 0.9625,0.75485 1.75,1.54235 1.75,1.75 0,0.82304 -0.821186,0.29331 -2.127555,-1.37244 z M 444.5,428 c 0.99549,-1.1 2.03498,-2 2.30998,-2 0.275,0 -0.31449,0.9 -1.30998,2 -0.99549,1.1 -2.03498,2 -2.30998,2 -0.275,0 0.31449,-0.9 1.30998,-2 z M 37,353.5 c 1.291745,-1.375 2.573628,-2.5 2.848628,-2.5 0.275,0 -0.556883,1.125 -1.848628,2.5 -1.291745,1.375 -2.573628,2.5 -2.848628,2.5 -0.275,0 0.556883,-1.125 1.848628,-2.5 z m 165.87244,-0.25 c -1.24387,-1.58606 -1.2085,-1.62143 0.37756,-0.37756 0.9625,0.75485 1.75,1.54235 1.75,1.75 0,0.82304 -0.82119,0.29331 -2.12756,-1.37244 z M 59,329.02144 c 23.375,-0.28679 43.85,-0.23 45.5,0.1262 1.65,0.3562 -17.475,0.59085 -42.5,0.52144 l -45.5,-0.1262 z m 213.75,0.22878 c 27.0875,-0.14799 71.4125,-0.14799 98.5,0 27.0875,0.14798 4.925,0.26906 -49.25,0.26906 -54.175,0 -76.3375,-0.12108 -49.25,-0.26906 z m 196.04748,0.005 c 4.56362,-0.18572 11.76362,-0.18468 16,0.002 4.23639,0.18698 0.50252,0.33893 -8.29748,0.33766 -8.8,-10e-4 -12.26613,-0.15425 -7.70252,-0.33996 z M 96.872445,326.25 c -1.243871,-1.58606 -1.208501,-1.62143 0.377555,-0.37756 0.9625,0.75485 1.75,1.54235 1.75,1.75 0,0.82304 -0.821186,0.29331 -2.127555,-1.37244 z M 0.07894737,267.41667 c 0.04798392,-1.16495 0.2849403,-1.4019 0.60416667,-0.60417 0.28887061,0.72187 0.25334429,1.58438 -0.0789474,1.91667 -0.33229167,0.33229 -0.56864035,-0.25834 -0.52521927,-1.3125 z m 0,-23 c 0.04798392,-1.16495 0.2849403,-1.4019 0.60416667,-0.60417 0.28887061,0.72187 0.25334429,1.58437 -0.0789474,1.91667 -0.33229167,0.33229 -0.56864035,-0.25834 -0.52521927,-1.3125 z m 511.00000263,0 c 0.048,-1.16495 0.28494,-1.4019 0.60416,-0.60417 0.28887,0.72187 0.25335,1.58437 -0.0789,1.91667 -0.33229,0.33229 -0.56864,-0.25834 -0.52522,-1.3125 z M 499.27236,206 c 0,-2.475 0.19502,-3.4875 0.43337,-2.25 0.23836,1.2375 0.23836,3.2625 0,4.5 -0.23835,1.2375 -0.43337,0.225 -0.43337,-2.25 z m -0.0404,-14 c 0,-1.925 0.2058,-2.7125 0.45733,-1.75 0.25152,0.9625 0.25152,2.5375 0,3.5 -0.25153,0.9625 -0.45733,0.175 -0.45733,-1.75 z M 499,180.05902 c 0,-2.41457 0.55611,-2.65816 1.34934,-0.59105 0.30982,0.80739 0.13297,1.73395 -0.39301,2.05902 C 499.43035,181.85207 499,181.19148 499,180.05902 Z m -92.17987,-16.80843 c 14.47608,-0.15624 37.87608,-0.1561 52,3.1e-4 14.12393,0.15641 2.27987,0.28425 -26.32013,0.28408 -28.6,-1.7e-4 -40.15594,-0.12814 -25.67987,-0.28439 z M 243.8125,0.31688596 c 0.72187,-0.28887061 1.58437,-0.25334429 1.91667,0.0789474 0.33229,0.33229167 -0.25834,0.56864035 -1.3125,0.5252193 -1.16495,-0.0479839 -1.4019,-0.2849403 -0.60417,-0.6041667 z m 23,0 c 0.72187,-0.28887061 1.58438,-0.25334429 1.91667,0.0789474 0.33229,0.33229167 -0.25834,0.56864035 -1.3125,0.5252193 -1.16495,-0.0479839 -1.4019,-0.2849403 -0.60417,-0.6041667 z"
         id="path292" />
      <path
         style="fill:#516c97"
         d="m 355,156.62244 c 0,-0.20765 0.7875,-0.99515 1.75,-1.75 1.58606,-1.24387 1.62143,-1.2085 0.37756,0.37756 C 355.82119,156.91575 355,157.44548 355,156.62244 Z m 30.32036,-49.37187 c 14.7512,-0.15592 38.6012,-0.15579 53,3e-4 14.3988,0.15609 2.32964,0.28367 -26.82036,0.2835 -29.15,-1.6e-4 -40.93084,-0.12787 -26.17964,-0.2838 z"
         id="path290" />
      <path
         style="fill:#895c5c"
         d="m 214.32314,508.1329 -9.17685,-1.6329 1.39142,-2.5 c 1.07789,-1.93667 1.3994,-7.93095 1.42685,-26.60212 0.0344,-23.378 -0.0322,-24.20144 -2.21456,-27.40805 -1.2375,-1.81826 -3.52019,-4.24731 -5.07265,-5.39788 -2.77858,-2.05928 -3.74196,-2.09622 -61.69579,-2.36511 L 80.108415,441.95367 70.804207,431.89872 C 65.686893,426.36849 61.140139,421.20392 60.70031,420.42188 60.012423,419.19879 69.430472,419 128.06416,419 c 67.5754,0 68.19604,-0.0183 71.9318,-2.11789 2.07255,-1.16483 4.72132,-3.8136 5.88615,-5.88615 1.98814,-3.5374 2.11789,-5.19042 2.11789,-26.98099 0,-26.10289 -0.44383,-28.20591 -6.87505,-32.57603 L 197.53573,349 l -77.01786,0.004 c -75.087953,0.004 -77.099538,0.0535 -80.27701,1.99086 -5.852724,3.56845 -7.226562,7.15193 -7.286305,19.0054 l -0.05292,10.5 -3.621991,-7 C 27.287548,369.65 23.48468,361.61481 20.828826,355.64403 16.385993,345.65584 16,344.1591 16,336.91971 16,329.21019 15.940182,329.02043 13.036746,327.519 10.994335,326.46283 9.7630713,324.82339 9.0745659,322.24332 5.9617508,310.57852 5.0280527,304.51941 5.0147811,295.89788 4.9981577,285.09898 6.4762935,281.61734 12.92168,277.2738 L 16.295766,275 59.397883,275.023 102.5,275.046 99,277.09763 c -6.993153,4.09925 -7.463528,5.52974 -7.818946,23.77887 -0.355502,18.25348 0.11612,20.42127 5.464452,25.11717 l 3.399054,2.98441 -41.77228,0.27226 c -22.974754,0.14975 4.91522,0.37969 61.97772,0.51099 L 224,330 v 90 c 0,49.5 -0.1125,89.9473 -0.25,89.8829 -0.1375,-0.0644 -4.37959,-0.85191 -9.42686,-1.75 z M 420,391.0811 V 330 h 20.5 20.5 v 39.61421 39.61422 l -5.22613,6.13578 c -11.40322,13.38805 -20.06822,22.6166 -27.73802,29.54203 L 420,452.1622 Z M 164.30987,269.5 c 0.006,-3.3 0.1923,-4.52944 0.41486,-2.73209 0.22256,1.79735 0.21797,4.49735 -0.0102,6 -0.22818,1.50265 -0.41027,0.0321 -0.40466,-3.26791 z M 405.75,220.25073 c 14.4375,-0.15616 38.0625,-0.15616 52.5,0 14.4375,0.15617 2.625,0.28394 -26.25,0.28394 -28.875,0 -40.6875,-0.12777 -26.25,-0.28394 z M 33.078947,210.41667 c 0.04798,-1.16495 0.284941,-1.4019 0.604167,-0.60417 0.288871,0.72187 0.253344,1.58437 -0.07895,1.91667 -0.332292,0.33229 -0.568641,-0.25834 -0.52522,-1.3125 z M 153,190.5 c 11.26494,-11.275 20.7067,-20.5 20.9817,-20.5 0.275,0 -8.71676,9.225 -19.9817,20.5 -11.26494,11.275 -20.7067,20.5 -20.9817,20.5 -0.275,0 8.71676,-9.225 19.9817,-20.5 z m -93.921053,17.91667 c 0.04798,-1.16495 0.284941,-1.4019 0.604167,-0.60417 0.288871,0.72187 0.253344,1.58437 -0.07895,1.91667 -0.332292,0.33229 -0.568641,-0.25834 -0.52522,-1.3125 z M 354.232,192 c 0,-1.925 0.2058,-2.7125 0.45733,-1.75 0.25152,0.9625 0.25152,2.5375 0,3.5 -0.25153,0.9625 -0.45733,0.175 -0.45733,-1.75 z M 59.078947,182.41667 c 0.04798,-1.16495 0.284941,-1.4019 0.604167,-0.60417 0.288871,0.72187 0.253344,1.58437 -0.07895,1.91667 -0.332292,0.33229 -0.568641,-0.25834 -0.52522,-1.3125 z M 215,162.62244 c 0,-0.20765 0.7875,-0.99515 1.75,-1.75 1.58606,-1.24387 1.62143,-1.2085 0.37756,0.37756 C 215.82119,162.91575 215,163.44548 215,162.62244 Z M 86.958208,126.75 C 91.102173,122.33481 92,121.54091 92,122.29179 c 0,0.16049 -2.1375,2.29799 -4.75,4.75 L 82.5,131.5 Z M 240,103.5 c 8.51169,-8.525 15.7008,-15.5 15.9758,-15.5 0.275,0 -6.46411,6.975 -14.9758,15.5 -8.51169,8.525 -15.7008,15.5 -15.9758,15.5 -0.275,0 6.46411,-6.975 14.9758,-15.5 z M 60,117.62244 c 0,-0.20765 0.7875,-0.99515 1.75,-1.75 1.586056,-1.24387 1.621426,-1.2085 0.377555,0.37756 C 60.821186,117.91575 60,118.44548 60,117.62244 Z"
         id="path288" />
      <path
         style="fill:#d62c3b"
         d="m 65.191337,266.57612 c 0.527215,-10.04474 3.136214,-14.92565 10.186899,-19.05763 l 4.423018,-2.59206 35.436576,0.28678 35.43658,0.28679 4.12968,2.86306 C 160.76723,252.49722 164,259.4695 164,268.19634 V 275 H 114.3746 64.749197 Z M 47.20625,244.25945 c 3.688437,-0.19186 9.988437,-0.19314 14,-0.003 4.011562,0.1903 0.99375,0.34727 -6.70625,0.34883 -7.7,0.002 -10.982188,-0.15414 -7.29375,-0.34599 z M 371.4619,217.63441 C 361.89235,213.17823 355,202.44549 355,192 c 0,-10.44549 6.89235,-21.17823 16.4619,-25.63441 l 5.0381,-2.34605 62.55,-0.01 c 47.32773,-0.007 62.84203,0.28226 63.75,1.19023 1.90147,1.90147 1.45796,6.59158 -0.73426,7.76482 C 500.7938,173.64554 479.50098,174 439.88147,174 c -59.35326,0 -60.31524,0.0316 -64.63173,2.12115 -10.71405,5.18658 -13.20385,19.4099 -4.89211,27.94687 5.93747,6.09836 3.98314,5.93198 69.67599,5.93198 39.51463,0 60.76034,0.35455 62.03212,1.03518 2.19222,1.17324 2.63573,5.86335 0.73426,7.76482 -0.90797,0.90797 -16.42227,1.19762 -63.75,1.19023 l -62.55,-0.01 -5.0381,-2.34605 z M 142.26794,168.77192 c -12.14461,-20.12615 -16.25962,-46.29717 -10.70921,-68.10948 1.53946,-6.049854 1.90951,-6.505592 20.25469,-24.944933 21.00455,-21.112363 20.40609,-20.754154 37.93658,-22.706749 18.97311,-2.113278 41.24242,2.992503 57.48641,13.180157 l 3.73641,2.343342 -52.76184,52.754793 -52.76184,52.75479 z M 103.84357,78.267602 C 95.810884,70.145421 88.33462,61.7 87.229653,59.5 81.661332,48.413421 80.652809,37.440851 84.183227,26.355335 c 1.200774,-3.770434 2.116929,-7.14437 2.0359,-7.497635 -0.206805,-0.901605 8.589936,-4.574965 13.871093,-5.792316 9.77634,-2.253529 20.34035,-0.677202 29.73741,4.437316 3.73416,2.032386 25.62701,22.568263 32.88486,30.846577 0.11686,0.1333 -9.79473,10.242165 -22.02577,22.464145 l -22.23826,22.221783 z"
         id="path286" />
      <path
         style="fill:#c1232f"
         d="m 22.344499,273.45537 c -0.987682,-2.57386 0.675591,-13.57569 2.627781,-17.38163 1.008196,-1.96556 2.889377,-4.5336 4.180402,-5.70677 5.113564,-4.64673 7.324095,-5.06207 30.334636,-5.69963 l 21.987318,-0.6092 -5.236029,2.99042 c -7.87877,4.49976 -10.501876,9.13645 -11.04727,19.52756 L 64.749197,275 H 43.843214 c -17.929096,0 -20.990385,-0.21995 -21.498715,-1.54463 z M 121.63486,210.92742 C 118.28085,208.28915 117.9461,202.26374 121,199.5 c 2.64756,-2.39601 2.586,-2.77372 -1.56602,-9.60867 -11.13253,-18.32613 -15.3763,-47.15235 -9.9035,-67.27044 L 111.1298,116.74177 92.697008,98.120885 C 82.558975,87.879398 73.354411,77.7 72.242421,75.5 64.81254,60.800459 65.472993,44.288188 74.023803,30.962906 76.748795,26.716375 84.589286,19 86.17913,19 c 0.260231,0 -0.561998,3.0375 -1.827175,6.75 -3.95614,11.608786 -2.506023,24.581757 3.964181,35.464196 1.40148,2.357192 8.770968,10.472268 16.376644,18.033501 l 13.82849,13.747697 22.46642,-22.483072 22.46641,-22.483071 4.07115,3.995526 4.07114,3.995526 -19.20853,19.116884 c -19.15245,19.061071 -19.21321,19.135486 -20.809,25.488353 -5.54272,22.06569 -1.48212,47.97591 10.67653,68.12567 l 3.16865,5.25121 55.11082,-55.00121 C 253.58919,66.052402 255.78459,64 259.36829,64 264.23384,64 268,67.576237 268,72.196423 c 0,3.017902 -5.63541,8.922742 -68.75812,72.045457 C 137.73763,205.74613 130.15597,213 127.37674,213 c -1.70886,0 -4.29271,-0.93266 -5.74188,-2.07258 z"
         id="path284" />
      <path
         style="fill:#ab2e39"
         d="m 22.157895,263 c 0,-1.375 0.226973,-1.9375 0.504386,-1.25 0.277412,0.6875 0.277412,1.8125 0,2.5 -0.277413,0.6875 -0.504386,0.125 -0.504386,-1.25 z M 27,251.62244 c 0,-0.20765 0.7875,-0.99515 1.75,-1.75 1.586056,-1.24387 1.621426,-1.2085 0.377555,0.37756 C 27.821186,251.91575 27,252.44548 27,251.62244 Z m 70.313512,-7.37103 c 9.247428,-0.16519 24.097428,-0.16488 32.999998,6.9e-4 8.90257,0.16557 1.33649,0.30072 -16.81351,0.30034 -18.15,-3.8e-4 -25.43392,-0.13584 -16.186488,-0.30103 z M 488.28017,220.26373 c 2.6291,-0.20668 6.6791,-0.20418 9,0.006 2.32091,0.20972 0.16983,0.37882 -4.78017,0.37577 -4.95,-0.003 -6.84892,-0.17464 -4.21983,-0.38131 z M 504.15789,215 c 0,-1.375 0.22698,-1.9375 0.50439,-1.25 0.27741,0.6875 0.27741,1.8125 0,2.5 -0.27741,0.6875 -0.50439,0.125 -0.50439,-1.25 z m -141.7529,-3.25 -1.90499,-2.25 2.25,1.90499 c 1.2375,1.04774 2.25,2.06024 2.25,2.25 0,0.80025 -0.80479,0.20945 -2.59501,-1.90499 z M 118.19495,204.5 c 0.0204,-1.65 0.2445,-2.20394 0.49804,-1.23097 0.25354,0.97297 0.23687,2.32297 -0.037,3 C 118.38206,206.94606 118.17462,206.15 118.195,204.5 Z M 120.5,199 c 0.99549,-1.1 2.03498,-2 2.30998,-2 0.275,0 -0.31449,0.9 -1.30998,2 -0.99549,1.1 -2.03498,2 -2.30998,2 -0.275,0 0.31449,-0.9 1.30998,-2 z M 360,174.68709 c 0,-0.1721 1.4625,-1.6346 3.25,-3.25 l 3.25,-2.93709 -2.93709,3.25 C 360.82513,174.77946 360,175.45965 360,174.68709 Z m 126.76791,-11.41182 c 1.79735,-0.22256 4.49735,-0.21797 6,0.0102 1.50265,0.22818 0.0321,0.41027 -3.26791,0.40466 -3.3,-0.006 -4.52944,-0.1923 -2.73209,-0.41486 z m -378.68896,-1.8586 c 0.048,-1.16495 0.28494,-1.4019 0.60416,-0.60417 0.28887,0.72187 0.25335,1.58437 -0.0789,1.91667 -0.3323,0.33229 -0.56864,-0.25834 -0.52522,-1.3125 z m -1,-6 c 0.048,-1.16495 0.28494,-1.4019 0.60416,-0.60417 0.28887,0.72187 0.25335,1.58437 -0.0789,1.91667 -0.3323,0.33229 -0.56864,-0.25834 -0.52522,-1.3125 z m 0,-23 c 0.048,-1.16495 0.28494,-1.4019 0.60416,-0.60417 0.28887,0.72187 0.25335,1.58437 -0.0789,1.91667 -0.3323,0.33229 -0.56864,-0.25834 -0.52522,-1.3125 z m 3,-14.36195 c -0.0434,-0.79491 -1.30618,-2.81991 -2.80614,-4.5 l -2.72719,-3.05472 3.34738,3.13942 c 1.85598,1.74068 3.10624,3.74562 2.80614,4.5 -0.43577,1.09543 -0.55663,1.07893 -0.62019,-0.0847 z M 260.5,83 c 2.70865,-2.75 5.14982,-5 5.42482,-5 0.275,0 -1.71617,2.25 -4.42482,5 -2.70865,2.75 -5.14982,5 -5.42482,5 -0.275,0 1.71617,-2.25 4.42482,-5 z m -7,-17 c 0.99549,-1.1 2.03498,-2 2.30998,-2 0.275,0 -0.31449,0.9 -1.30998,2 -0.99549,1.1 -2.03498,2 -2.30998,2 -0.275,0 0.31449,-0.9 1.30998,-2 z m 5.25,-2.662281 c 0.6875,-0.277412 1.8125,-0.277412 2.5,0 0.6875,0.277413 0.125,0.504386 -1.25,0.504386 -1.375,0 -1.9375,-0.226973 -1.25,-0.504386 z M 213.8125,53.316886 c 0.72187,-0.288871 1.58437,-0.253344 1.91667,0.07895 0.33229,0.332292 -0.25834,0.568641 -1.3125,0.52522 -1.16495,-0.04798 -1.4019,-0.284941 -0.60417,-0.604167 z m -23.54347,-1.009877 c 0.97297,-0.253543 2.32297,-0.236869 3,0.03705 0.67703,0.273923 -0.11903,0.481368 -1.76903,0.460988 -1.65,-0.02038 -2.20394,-0.244498 -1.23097,-0.498042 z m 15,0 c 0.97297,-0.253543 2.32297,-0.236869 3,0.03705 0.67703,0.273923 -0.11903,0.481368 -1.76903,0.460988 -1.65,-0.02038 -2.20394,-0.244498 -1.23097,-0.498042 z M 151.98213,37.25 141.5,26.5 152.25,36.982133 c 5.9125,5.765173 10.75,10.602673 10.75,10.75 0,0.722207 -1.28184,-0.497304 -11.01787,-10.482133 z"
         id="path282" />
      <path
         style="fill:#534e55"
         d="m 248.76166,511.29274 c 1.24391,-0.23919 3.04391,-0.23011 4,0.0202 0.95609,0.25029 -0.0617,0.446 -2.26166,0.4349 -2.2,-0.0111 -2.98225,-0.21589 -1.73834,-0.45508 z m 10.48834,0.0179 c 0.9625,-0.25152 2.5375,-0.25152 3.5,0 0.9625,0.25153 0.175,0.45733 -1.75,0.45733 -1.925,0 -2.7125,-0.2058 -1.75,-0.45733 z M 419.47023,391.5 c -1.2e-4,-34.1 0.12549,-48.19495 0.27912,-31.32211 0.15364,16.87284 0.15374,44.77284 2.3e-4,62 C 419.59606,439.40505 419.47036,425.6 419.47023,391.5 Z M 15.142103,342 c -0.66442,-3.99261 -0.546796,-13.80699 0.157026,-13.10209 0.439521,0.44019 0.640158,3.90574 0.44586,7.70122 C 15.550692,340.39461 15.279393,342.825 15.142103,342 Z M 3.8444483,298.75 c -0.2059001,-1.7875 -0.083374,-4.6 0.2722792,-6.25 0.4685038,-2.17355 0.6792366,-1.27823 0.7649577,3.25 0.12698,6.70774 -0.4259365,8.30694 -1.0372369,3 z M 507,296.5 c 0,-3.20833 0.28242,-5.55091 0.62761,-5.20573 0.75028,0.75028 0.67002,9.74144 -0.0938,10.50523 C 507.24022,302.09311 507,299.70833 507,296.5 Z M 8,280.62244 c 0,-0.20765 0.7875,-0.99515 1.75,-1.75 1.586056,-1.24387 1.621426,-1.2085 0.377555,0.37756 C 8.8211855,280.91575 8,281.44548 8,280.62244 Z M 501.87244,279.25 c -1.24387,-1.58606 -1.2085,-1.62143 0.37756,-0.37756 0.9625,0.75485 1.75,1.54235 1.75,1.75 0,0.82304 -0.82119,0.29331 -2.12756,-1.37244 z m -337.1411,-11.61931 c -0.33653,-4.44969 -1.36084,-8.94429 -2.58543,-11.34468 -2.65447,-5.20319 -8.14357,-9.93902 -13.05175,-11.26065 -3.71132,-0.99936 -4.08445,-1.46492 -6.64567,-8.29208 -1.49246,-3.97831 -4.24731,-11.26354 -6.12189,-16.18941 l -3.40831,-8.95614 20.35505,-20.35505 20.35505,-20.35505 4.71736,1.18785 c 11.25854,2.83493 26.36058,-0.55638 35.30327,-7.9277 11.31555,-9.32724 17.00196,-27.01139 12.98137,-40.37077 l -1.3696,-4.55086 15.74197,-15.71891 15.74198,-15.718912 34.37763,29.401822 c 18.9077,16.171 42.049,35.93038 51.42512,43.90972 l 17.04749,14.5079 -1.77508,2.93465 c -7.10219,11.74174 -2.66121,29.06131 9.54311,37.21758 l 4.86302,3.25 h -6.67876 C 357.34521,219 355,220.1037 355,223.96376 355,226.76854 357.17961,230 359.07143,230 359.60725,230 360,237.3532 360,247.38499 v 17.38499 l -2.59913,1.70302 c -2.13765,1.40064 -2.52841,2.30882 -2.2008,5.11501 L 355.5984,275 H 260.44354 165.28868 Z M 0.2521834,261.5 c 0.0110994,-2.2 0.21588425,-2.98225 0.45507747,-1.73834 0.23919321,1.24391 0.2301119,3.04391 -0.0201807,4 C 0.43678756,264.71775 0.24108402,263.7 0.2521834,261.5 Z m 510.9999966,0 c 0.0111,-2.2 0.21589,-2.98225 0.45508,-1.73834 0.23919,1.24391 0.23011,3.04391 -0.0202,4 -0.25029,0.95609 -0.446,-0.0617 -0.4349,-2.26166 z m -7.17323,-9.08333 c 0.048,-1.16495 0.28494,-1.4019 0.60416,-0.60417 0.28887,0.72187 0.25335,1.58437 -0.0789,1.91667 -0.33229,0.33229 -0.56864,-0.25834 -0.52522,-1.3125 z M 0.2521834,249.5 c 0.0110994,-2.2 0.21588425,-2.98225 0.45507747,-1.73834 0.23919321,1.24391 0.2301119,3.04391 -0.0201807,4 C 0.43678756,252.71775 0.24108402,251.7 0.2521834,249.5 Z M 511.232,250 c 0,-1.925 0.2058,-2.7125 0.45733,-1.75 0.25152,0.9625 0.25152,2.5375 0,3.5 -0.25153,0.9625 -0.45733,0.175 -0.45733,-1.75 z M 495.92431,227.25 493.5,224.5 l 2.75,2.42431 c 2.57029,2.26589 3.20859,3.07569 2.42431,3.07569 -0.17912,0 -1.41662,-1.2375 -2.75,-2.75 z M 32.078947,197.41667 c 0.04798,-1.16495 0.284941,-1.4019 0.604167,-0.60417 0.288871,0.72187 0.253344,1.58437 -0.07895,1.91667 -0.332292,0.33229 -0.568641,-0.25834 -0.52522,-1.3125 z M 32.157895,193 c 0,-1.375 0.226973,-1.9375 0.504386,-1.25 0.277412,0.6875 0.277412,1.8125 0,2.5 -0.277413,0.6875 -0.504386,0.125 -0.504386,-1.25 z M 68.5,108 c 2.148243,-2.2 4.130896,-4 4.405896,-4 0.275,0 -1.257653,1.8 -3.405896,4 -2.148243,2.2 -4.130896,4 -4.405896,4 -0.275,0 1.257653,-1.8 3.405896,-4 z M 82,88.5 C 79.570971,86.025 77.808584,84 78.083584,84 78.358584,84 80.570971,86.025 83,88.5 85.429029,90.975 87.191416,93 86.916416,93 86.641416,93 84.429029,90.975 82,88.5 Z M 65,85.622445 c 0,-0.207656 0.7875,-0.995156 1.75,-1.75 C 68.336056,82.628574 68.371426,82.663944 67.127555,84.25 65.821186,85.915748 65,86.445479 65,85.622445 Z M 444.40499,83.75 442.5,81.5 l 2.25,1.904988 C 446.86444,85.195206 447.45524,86 446.65499,86 c -0.18976,0 -1.20226,-1.0125 -2.25,-2.25 z m -17,-17 -1.90499,-2.25 2.25,1.904988 C 429.86444,68.195206 430.45524,69 429.65499,69 c -0.18976,0 -1.20226,-1.0125 -2.25,-2.25 z M 248.25,0.31067449 c 0.9625,-0.25152755 2.5375,-0.25152755 3.5,0 0.9625,0.25152754 0.175,0.45732281 -1.75,0.45732281 -1.925,0 -2.7125,-0.20579527 -1.75,-0.45732281 z m 12,0 c 0.9625,-0.25152755 2.5375,-0.25152755 3.5,0 0.9625,0.25152754 0.175,0.45732281 -1.75,0.45732281 -1.925,0 -2.7125,-0.20579527 -1.75,-0.45732281 z"
         id="path280" />
      <path
         style="fill:#443e43"
         d="m 242.5,510.88559 c -6.6,-0.33793 -13.4625,-0.67543 -15.25,-0.75 L 224,510 v -90 -90 h 97.5 97.5 v 61.50465 61.50465 l -9.94061,7.39805 C 360.27735,496.71216 303.24741,513.99591 242.5,510.88559 Z M 461,369.2468 V 330 h 16.78856 c 14.21447,0 17.3318,-0.27696 20.33169,-1.80639 l 3.54313,-1.80639 -2.19834,7.05639 c -7.1535,22.96184 -20.78853,50.33803 -34.89082,70.05319 L 461,408.49361 Z M 12.405468,333.25 c -0.90772,-3.1625 -1.875697,-6.13418 -2.151058,-6.60373 -0.2753615,-0.46955 0.679748,-0.0803 2.122466,0.86501 C 14.615163,328.97787 15,329.94669 15,334.11501 15,336.80175 14.787571,339 14.527935,339 c -0.259636,0 -1.214746,-2.5875 -2.122467,-5.75 z M 2.099771,284.26956 C 0.35772661,268.81316 0.53078631,240.22711 2.4608968,224.6187 8.9820707,171.8833 30.847173,124.73061 68.362546,82.5 l 4.441728,-5 2.332131,3 c 1.282673,1.65 4.328549,5.153813 6.768614,7.786251 l 4.436482,4.786251 -2.224669,1.558219 C 78.603021,98.492745 67.01489,109.4014 62,115.45073 35.797282,147.05836 27.007885,184.76234 36.080536,226.63774 c 1.13333,5.23096 2.672239,11.2444 3.419797,13.3632 l 1.359197,3.85238 -3.179765,1.10734 c -10.356435,3.6066 -15.652903,11.47841 -15.669996,23.28934 -0.0096,6.59931 -0.06779,6.75 -2.60864,6.75 -3.87743,0 -9.162423,2.85603 -11.5877195,6.26204 -1.1809617,1.65851 -2.6648575,5.54053 -3.2975462,8.62672 L 3.3655203,295.5 Z m 505.058189,5.16276 c -1.936,-9.64005 -7.28135,-14.38477 -16.30909,-14.47652 l -4.34887,-0.0442 3.63338,-1.91986 c 5.03571,-2.66085 11.4094,-10.20165 13.29152,-15.72536 4.19071,-12.29906 -0.58442,-26.60652 -11.1072,-33.27987 L 487.60844,221 h 6.69578 C 501.29972,221 505,219.07449 505,215.43426 505,212.9656 503.07077,210 501.46482,210 c -1.22216,0 -1.44971,-2.36061 -1.3736,-14.25 l 0.0912,-14.25 1.8906,6 c 5.58128,17.71282 9.00376,43.11666 9.05851,67.23805 0.0336,14.79774 -1.6254,40.26195 -2.62305,40.26195 -0.12781,0 -0.73555,-2.50546 -1.35053,-5.56768 z M 68.692892,243.25 C 67.687358,241.47612 63.886896,228.83238 62.004977,221 59.291816,209.70807 58.385736,192.66453 59.928435,181.93984 63.574352,156.5938 76.377724,134.96007 97.905646,117.77012 l 7.405644,-5.91337 2.50369,2.50368 2.50368,2.50369 -1.70448,7.88882 c -2.17278,10.05627 -2.20837,27.42248 -0.0776,37.86932 1.85953,9.11697 6.75789,21.7119 11.21079,28.82575 l 3.09719,4.94801 -2.42228,2.87872 c -4.2006,4.99213 -2.63175,11.15321 3.48524,13.68695 2.47,1.02311 3.51568,0.97368 6.03982,-0.28554 1.67897,-0.83757 3.05266,-1.41665 3.05266,-1.28683 0,0.12982 2.69838,7.40783 5.9964,16.17336 3.29802,8.76552 5.99802,16.04982 6,16.18732 0.009,0.65221 -75.932457,0.15458 -76.303508,-0.5 z M 349.5,167.12505 c -4.95,-4.28357 -27.81353,-23.86331 -50.80785,-43.51054 l -41.80784,-35.722237 5.55784,-6.003136 C 267.18618,76.765023 268,75.321654 268,72.031894 c 0,-3.103702 -0.61955,-4.375421 -3.18202,-6.531597 -3.64806,-3.069645 -7.71735,-2.882918 -11.33997,0.520359 l -2.11813,1.989885 -7.66397,-4.367501 C 234.71987,58.527827 223.20688,54.517978 212.86751,52.905849 203.7941,51.49111 184.51452,52.273911 177,54.362163 l -5.5,1.528426 -14.40193,-14.351461 -14.40193,-14.35146 5.07035,-2.569338 C 160.29786,18.268205 181.23108,10.987412 198,7.1465921 233.99996,-1.09898 274.47677,-1.4754797 309.5,6.109462 c 38.49362,8.336519 76.28649,26.46001 107.5,51.551389 14.64836,11.77527 40.2323,38.768956 45.10382,47.589149 0.91503,1.65672 -1.83359,1.75 -51.56864,1.75 -51.20185,0 -52.58594,0.0508 -54.53518,2 -1.1,1.1 -2,2.9 -2,4 0,2.08345 3.26379,6 5,6 0.62832,0 1,6.46112 1,17.38337 0,16.47173 -0.10362,17.41047 -1.97591,17.90008 -1.08675,0.28419 -2.50059,1.66824 -3.14185,3.07567 -0.95207,2.08956 -0.86055,3.02504 0.49896,5.09992 1.54025,2.35071 2.24346,2.54427 9.39185,2.58516 l 7.72695,0.0442 -3.5,1.86602 c -1.925,1.02631 -4.82169,3.25642 -6.43709,4.95581 -1.6154,1.69938 -3.1904,3.07028 -3.5,3.04646 -0.3096,-0.0238 -4.61291,-3.54807 -9.56291,-7.83163 z m 138.58333,-4.4896 c 0.22917,-0.2005 1.38419,-0.86725 2.56671,-1.48168 1.7101,-0.88855 2.26638,-0.81396 2.71861,0.36454 0.42778,1.11476 -0.20785,1.48169 -2.5667,1.48169 -1.72441,0 -2.94778,-0.16405 -2.71862,-0.36455 z"
         id="path278" />
    </g>
  </g>
</svg>
